# xmcd
#
# Track frame offsets:
#	150
#	11814
#	34327
#	56466
#	84094
#	95866
#	111666
#	138306
#	146379
#	159898
#	182098
#	203364
#	219989
#
# Disc length: 3187 seconds
# Revision: 3
# Processed by: cddbd v1.5.2PL0 Copyright (c) Steve Scherf et al.
# Submitted via: dBpowerAMP V12.0
#
DISCID=ac0c710d
DTITLE=AbigailWashburn,Evanston,IL&TheSparrowQuartet - Abigail Washburn and The Sparrow Quartet
DYEAR=2008
DGENRE=Bluegrass
TTITLE0=Overture
TTITLE1=A Fuller Wine
TTITLE2=Strange Things
TTITLE3=Great Big Wall in China
TTITLE4=Tai Yang Chulai
TTITLE5=Oh Me, Oh My
TTITLE6=Captain
TTITLE7=A Kazakh Melody
TTITLE8=Banjo Pickin' Girl
TTITLE9=KangdingQingge~OldTimeyDanceParty
TTITLE10=Sugar and Pie
TTITLE11=It Ain't Easy
TTITLE12=Journey Home
EXTD=
EXTT0=
EXTT1=
EXTT2=
EXTT3=
EXTT4=
EXTT5=
EXTT6=
EXTT7=
EXTT8=
EXTT9=
EXTT10=
EXTT11=
EXTT12=
PLAYORDER=
